<svg xmlns="http://www.w3.org/2000/svg" viewBox="0 0 220 220"><defs><linearGradient id="bg" x1="0" x2="1" y1="0" y2="1"><stop offset="0%" stop-color="#fff9fb"/><stop offset="100%" stop-color="#ffe9f0"/></linearGradient></defs><rect x="14" y="14" width="192" height="192" rx="38" fill="url(#bg)"/><ellipse cx="110" cy="188" rx="66" ry="10" fill="#f4d7e0"/><circle cx="110" cy="48" r="18" fill="#fff"/><path d="M94 58c8 8 24 8 32 0" stroke="#d48ba5" stroke-width="5" stroke-linecap="round"/><path d="M68 72l26-20h32l26 20-10 30H78L68 72Z" fill="#c7c8ff"/><rect x="84" y="100" width="52" height="42" rx="16" fill="#fff7fb"/><path d="M84 142h20v46H86c-10 0-18-8-18-18v-24Z" fill="#f4d3f2"/><path d="M136 142h-20v46h18c10 0 18-8 18-18v-24Z" fill="#f4d3f2"/></svg>