<svg xmlns="http://www.w3.org/2000/svg" viewBox="0 0 220 220"><defs><linearGradient id="bg" x1="0" x2="1" y1="0" y2="1"><stop offset="0%" stop-color="#fff9fb"/><stop offset="100%" stop-color="#ffe9f0"/></linearGradient></defs><rect x="14" y="14" width="192" height="192" rx="38" fill="url(#bg)"/><ellipse cx="110" cy="188" rx="66" ry="10" fill="#f4d7e0"/><circle cx="110" cy="48" r="18" fill="#fff"/><path d="M94 58c8 8 24 8 32 0" stroke="#d48ba5" stroke-width="5" stroke-linecap="round"/><path d="M110 52c18 0 28 10 36 22l-12 18h-48L74 74c8-12 18-22 36-22Z" fill="#f5bbcf"/><path d="M78 92h64l28 88c-18 15-112 15-130 0l38-88Z" fill="#fff2c1"/><path d="M106 82h8v52h-8z" fill="#fff7fb"/><circle cx="110" cy="146" r="7" fill="#fff7fb"/></svg>